<svg width="56" height="56" viewBox="0 0 56 56" fill="none" xmlns="http://www.w3.org/2000/svg">
<rect width="56" height="56" rx="12" fill="url(#paint0_linear_33_13851)"/>
<path d="M29.5982 31.8395C29.3595 31.2409 28.7328 30.8125 27.9991 30.8125C27.2653 30.8125 26.6385 31.2409 26.3999 31.8395L27.9991 32.888L29.5982 31.8395Z" fill="#F8DCC7"/>
<path d="M28.0005 39.2891C27.7047 39.5325 27.3675 39.7344 27 39.8848L27.2951 40.9684H28.7059L29.001 39.8848C28.6335 39.7344 28.2963 39.5325 28.0005 39.2891Z" fill="#F8DCC7"/>
<path d="M42.1226 17.0054C42.1856 16.9508 42.2484 16.8959 42.3102 16.8392C44.9691 14.3984 45.5079 10.9357 43.5137 9.10517C41.5196 7.27462 37.7475 7.76923 35.0886 10.21C35.0213 10.2718 34.9559 10.3345 34.8914 10.3976C38.0245 11.8036 40.5771 14.1366 42.1226 17.0054Z" fill="#F8DCC7"/>
<path d="M21.1094 10.3977C21.0448 10.3346 20.9794 10.2719 20.9121 10.2101C18.2531 7.76923 14.4811 7.27462 12.4869 9.10516C10.4928 10.9357 11.0316 14.3984 13.6905 16.8391C13.7522 16.8959 13.8151 16.9508 13.878 17.0054C15.4236 14.1366 17.9762 11.8037 21.1094 10.3977Z" fill="#F8DCC7"/>
<path d="M13.3596 43.6601C13.5706 43.8144 13.7867 43.9663 14.0092 44.1148C17.7621 46.6202 22.7306 48.0001 27.9995 48.0001C33.2685 48.0001 38.237 46.6202 41.9898 44.1148C42.2124 43.9662 42.4285 43.8144 42.6395 43.66C41.0246 38.6362 36.6823 34.7533 31.2832 33.6152L29.2761 34.9313V36.672C29.2761 37.3181 29.8488 37.8438 30.5527 37.8438C31.2566 37.8438 31.8293 37.3181 31.8293 36.672C31.8293 36.0248 32.4009 35.5001 33.1059 35.5001C33.8109 35.5001 34.3825 36.0248 34.3825 36.672C34.3825 38.2821 33.1968 39.642 31.5851 40.0568L30.9401 42.425C30.7981 42.9466 30.2874 43.3126 29.7017 43.3126H26.2974C25.7116 43.3126 25.201 42.9466 25.0589 42.4249L24.414 40.0567C22.8023 39.642 21.6166 38.2821 21.6166 36.672C21.6166 36.0248 22.1881 35.5001 22.8932 35.5001C23.5982 35.5001 24.1697 36.0248 24.1697 36.672C24.1697 37.3181 24.7424 37.8438 25.4463 37.8438C26.1503 37.8438 26.7229 37.3181 26.7229 36.672V34.9313L24.7159 33.6153C19.3167 34.7533 14.9745 38.6362 13.3596 43.6601Z" fill="#F8DCC7"/>
<path d="M15.3433 35.9473C17.7297 33.6613 20.6743 32.102 23.8842 31.383C24.3637 29.708 26.0269 28.4688 28 28.4688C29.9731 28.4688 31.6363 29.708 32.1158 31.383C35.3257 32.102 38.2702 33.6612 40.6566 35.9473C42.4494 37.6648 43.8127 39.6832 44.6951 41.8827C46.8454 39.6679 48 37.0653 48 34.3281C48 30.3498 45.5289 26.6302 41.1915 24.0366V23.3906C41.1915 16.7135 35.2738 11.2812 28 11.2812C20.7262 11.2812 14.8085 16.7135 14.8085 23.3906V24.0366C10.4711 26.6302 8 30.3498 8 34.3281C8 37.0653 9.15455 39.6679 11.3049 41.8827C12.1872 39.6831 13.5505 37.6648 15.3433 35.9473ZM32.6809 23.3906C32.6809 22.7434 33.2524 22.2188 33.9574 22.2188C34.6625 22.2188 35.234 22.7434 35.234 23.3906V25.7344C35.234 26.3816 34.6625 26.9062 33.9574 26.9062C33.2524 26.9062 32.6809 26.3816 32.6809 25.7344V23.3906ZM20.766 23.3906C20.766 22.7434 21.3375 22.2188 22.0426 22.2188C22.7476 22.2188 23.3191 22.7434 23.3191 23.3906V25.7344C23.3191 26.3816 22.7476 26.9062 22.0426 26.9062C21.3375 26.9062 20.766 26.3816 20.766 25.7344V23.3906Z" fill="#F8DCC7"/>
<defs>
<linearGradient id="paint0_linear_33_13851" x1="2.5" y1="2" x2="54.5" y2="55" gradientUnits="userSpaceOnUse">
<stop stop-color="#E89746"/>
<stop offset="1" stop-color="#A35D39"/>
</linearGradient>
</defs>
</svg>
