<svg width="25" height="24" viewBox="0 0 25 24" fill="none" xmlns="http://www.w3.org/2000/svg">
<path fill-rule="evenodd" clip-rule="evenodd" d="M24.3112 12.0407C24.3185 12.0351 24.3259 12.0295 24.3331 12.0237C24.3331 12.017 24.3331 12.0102 24.3332 12.0036C24.3306 12.0018 24.3278 12.0001 24.3251 11.9984C24.3193 11.9949 24.3136 11.9914 24.3089 11.9867C23.8741 11.5513 23.4394 11.1158 23.0047 10.6802C22.5708 10.2455 22.1368 9.81071 21.7028 9.376C21.6858 9.35902 21.6673 9.34362 21.655 9.33344C21.6509 9.33004 21.6475 9.32722 21.6451 9.32512L18.96 12.0132L21.644 14.7004C21.6498 14.6948 21.6562 14.6887 21.663 14.6822C21.6809 14.665 21.7016 14.6451 21.7219 14.6248C21.9648 14.3817 22.2076 14.1386 22.4505 13.8955C23.0554 13.2899 23.6603 12.6843 24.2655 12.079C24.2794 12.065 24.2953 12.0529 24.3112 12.0407ZM4.9629 7.36544L7.65753 10.0629L12.3199 5.39536L16.9873 10.0682C17.1198 9.96568 19.6442 7.42664 19.6743 7.37232L12.3099 0C12.203 0.0816 4.99326 7.31112 4.9629 7.36544ZM12.3155 18.6178L7.64786 13.9449C6.74291 14.8482 5.84516 15.7443 4.95898 16.6291L12.3212 24L19.6824 16.6307L16.9937 13.9424L16.4677 14.4689L15.9504 14.9868L15.4331 15.5047L14.9158 16.0226L14.3913 16.5476L13.874 17.0655L13.3567 17.5834C13.305 17.6352 13.2534 17.687 13.2018 17.7388C13.0812 17.8598 12.9606 17.9809 12.8391 18.1011C12.7844 18.1553 12.7303 18.2101 12.6761 18.2651C12.5593 18.3834 12.4418 18.5025 12.3155 18.6178ZM9.60306 12.0067L12.3211 14.7278L15.0366 12.0092L12.3186 9.28808L9.60306 12.0067ZM3.00552 9.32641L0.333496 12.0015L3.00871 14.6798L5.68041 12.0044L3.00552 9.32641Z" fill="#F4B92E"/>
</svg>
