<svg width="24" height="24" viewBox="0 0 24 24" fill="none" xmlns="http://www.w3.org/2000/svg">
<g opacity="0.2">
<path d="M19.9886 7.87727C20.4956 7.3754 20.4793 6.55724 19.9886 6.06009L19.4786 5.54579L17.9443 4.01148C17.9126 3.98191 17.8787 3.94505 17.8414 3.92576C17.5953 3.7244 17.2831 3.62167 16.9654 3.63751C16.6478 3.65335 16.3474 3.78663 16.1224 4.01148L14.0953 6.03866C13.9376 6.19809 13.4139 6.72439 13.2635 6.87439C13.0394 7.09947 12.9063 7.39933 12.8897 7.71648C12.8731 8.03363 12.9742 8.34575 13.1735 8.59299C13.2228 8.65214 13.707 9.14072 13.7735 9.20586L14.7935 10.2263L15.3077 10.7406C15.7834 11.2386 16.65 11.239 17.1253 10.7406L19.9886 7.87727ZM20.6828 5.54108C20.9387 5.23934 21.0719 4.8525 21.056 4.45721C21.0401 4.06192 20.8764 3.68701 20.5971 3.40675C20.0271 2.83674 19.0671 2.80674 18.4586 3.31675C18.4886 3.34675 18.5229 3.37675 18.5486 3.40675L20.6828 5.54108ZM13.1692 9.81059C13.107 9.73473 12.6163 9.26801 12.5649 9.20201L0.460405 21.3021C-0.152877 21.8948 -0.153734 22.9474 0.460405 23.5397C1.05354 24.153 2.10482 24.1539 2.69753 23.5397L14.7977 11.4392C14.7592 11.4049 14.7292 11.3749 14.7035 11.3449L13.1692 9.81059ZM22.8771 14.2511C22.2072 12.3676 21.2768 10.5873 20.1129 8.962L17.91 11.1649C20.0049 13.6524 21.78 16.433 23.1861 19.3563C23.259 19.5106 23.409 19.6006 23.5718 19.6006C23.8187 19.6041 24.0308 19.3786 23.9961 19.1249C23.8157 17.4621 23.4398 15.8262 22.8771 14.2511ZM4.64795 0.813848C7.58618 2.2243 10.3365 3.99666 12.8349 6.08966C13.2622 5.6568 14.5877 4.33506 15.0377 3.88676C12.0384 1.7472 8.54154 0.410521 4.87981 0.00383309C4.41267 -0.0565966 4.2151 0.614559 4.64795 0.813848Z" fill="white"/>
</g>
</svg>
