<svg width="22" height="28" viewBox="0 0 22 28" fill="none" xmlns="http://www.w3.org/2000/svg">
<path d="M20.3311 11.949L15.3183 10.5324C14.9091 10.4167 14.677 9.98645 14.8067 9.58384L17.197 2.16351C17.5565 1.69513 17.5451 1.02362 17.1371 0.56416C16.6731 0.0423184 15.8728 -0.00809713 15.3492 0.45209L0.420379 13.5818C-0.103019 14.0421 -0.151238 14.8387 0.312609 15.361C0.477139 15.5467 0.692993 15.6801 0.93308 15.7444C0.976795 15.7561 1.02116 15.7645 1.0657 15.7715C1.10799 15.7878 1.15132 15.8023 1.19613 15.8144L4.95026 16.8203C5.40615 16.9424 5.63825 17.4476 5.43236 17.8696L1.5954 25.734C1.17356 26.1756 1.12532 26.8694 1.51144 27.3689C1.68088 27.5888 1.91845 27.747 2.18717 27.8188C2.555 27.9173 2.96282 27.8505 3.28759 27.602L20.6922 14.2894C20.8526 14.1667 20.9809 14.0073 21.0661 13.8246C21.1261 13.7275 21.1747 13.6213 21.2071 13.5061C21.3967 12.8364 21.0043 12.1393 20.3311 11.949Z" fill="url(#paint0_linear_33_13793)"/>
<defs>
<linearGradient id="paint0_linear_33_13793" x1="14.4347" y1="-0.376884" x2="14.4347" y2="21.0731" gradientUnits="userSpaceOnUse">
<stop stop-color="#F7C243"/>
<stop offset="1" stop-color="#FD902B"/>
</linearGradient>
</defs>
</svg>
